<?xml version="1.0" encoding="UTF-8"?>
<!-- Generator: Adobe Illustrator 19.2.0, SVG Export Plug-In . SVG Version: 6.00 Build 0)  -->
<!DOCTYPE svg PUBLIC "-//W3C//DTD SVG 1.1//EN" "http://www.w3.org/Graphics/SVG/1.1/DTD/svg11.dtd">
<svg xmlns="http://www.w3.org/2000/svg" xmlns:xlink="http://www.w3.org/1999/xlink" xmlns:dc="http://purl.org/dc/elements/1.1/" xmlns:cc="http://creativecommons.org/ns#" xmlns:rdf="http://www.w3.org/1999/02/22-rdf-syntax-ns#" version="1.1" id="DESIGNS" x="0px" y="0px" width="32px" height="32px" viewBox="0 0 32 32" style="enable-background:new 0 0 32 32;" xml:space="preserve">
<title property="dc:title">to curdle</title><desc property="dc:description">An icon for "curdle" from the Hatch series on to [icon]. Downloaded from http://www.toicon.com/icons/hatch_curdle by 107.220.146.171 on 2017-03-24. Licensed CC-BY, see http://toicon.com/license/ for details.</desc>
<g>
	<path class="hatch_twee" d="M10.45,6.934L14.385,3h1.414l-4.88,4.88C10.829,7.53,10.67,7.208,10.45,6.934z M6.385,3L3,6.385v1.414   L7.799,3H6.385z M6,8.5C6,7.122,7.122,6,8.5,6c0.093,0,0.196,0.002,0.287,0.012L11.799,3h-1.414L3,10.385v1.414L6.019,8.78   C6.009,8.689,6,8.593,6,8.5z M6.94,10.445L3,14.385v1.414l4.882-4.882C7.532,10.828,7.213,10.665,6.94,10.445z M23.439,7.36   l2.389-2.389C25.72,4.985,25.612,5,25.5,5c-0.33,0-0.642-0.069-0.93-0.185l-2.252,2.252C22.706,7.126,23.081,7.224,23.439,7.36z    M4.914,17.885L19.799,3h-1.414L4.448,16.937C4.668,17.211,4.825,17.534,4.914,17.885z M9.697,17.102l6.733-6.733   c0.558-1.321,1.617-2.381,2.938-2.938l3.874-3.874C23.16,3.379,23.09,3.196,23.05,3h-0.666L3,22.385v1.414l4.102-4.102   C7.406,18.413,8.413,17.406,9.697,17.102z M14,20.5c0,0.114-0.006,0.204-0.016,0.315l4.05-4.05c-0.259-0.211-0.497-0.446-0.714-0.7   l-3.457,3.457C13.952,19.83,14,20.164,14,20.5z M12.022,17.363c0.309,0.151,0.592,0.342,0.842,0.572l3.496-3.496   c-0.135-0.358-0.234-0.733-0.292-1.122L12.022,17.363z M3,3v0.799L3.799,3H3z M16.724,29h1.074L29,17.799v-1.414L16.628,28.757   C16.661,28.836,16.695,28.919,16.724,29z M23.984,17.4l-9.221,9.221c0.292,0.173,0.56,0.377,0.804,0.61L29,13.799v-1.414l-2.6,2.6   C25.871,16.024,25.024,16.871,23.984,17.4z M25.065,8.32c0.254,0.217,0.489,0.455,0.7,0.714L29,5.799V4.385L25.065,8.32z    M7.354,22.031L3,26.385v1.414l4.928-4.928C7.698,22.621,7.504,22.34,7.354,22.031z M26.957,11.842L29,9.799V8.385l-2.31,2.31   C26.818,11.062,26.909,11.445,26.957,11.842z M21.799,29L29,21.799v-1.414L20.385,29H21.799z M25.799,29L29,25.799v-1.414   L24.385,29H25.799z M10.5,24c-0.336,0-0.667-0.051-0.975-0.14L4.385,29h1.414l5.016-5.016C10.703,23.995,10.614,24,10.5,24z    M19.695,17.69l-8.515,8.515C11.598,26.075,12.039,26,12.5,26c0.094,0,0.196,0.005,0.288,0.01l8.054-8.054   C20.445,17.909,20.062,17.818,19.695,17.69z M29,29v-0.615L28.385,29H29z" style="fill: #FFC5BB;"/>
	<path class="hatch_een" d="M26,12.5c0,2.484-2.015,4.5-4.5,4.5S17,14.985,17,12.5S19.02,8,21.5,8S26,10.016,26,12.5z M21.5,7   C18.467,7,16,9.467,16,12.5s2.467,5.5,5.5,5.5s5.5-2.467,5.5-5.5S24.533,7,21.5,7L21.5,7z M10,8.5C10,9.249,9.328,10,8.5,10   S7,9.328,7,8.5S7.585,7,8.5,7S10,7.751,10,8.5z M8.5,6C7.122,6,6,7.122,6,8.5S7.122,11,8.5,11S11,9.878,11,8.5S9.878,6,8.5,6L8.5,6   z M13,20.5c0,1.327-1.119,2.5-2.5,2.5S8,21.881,8,20.5S9.108,18,10.5,18S13,19.173,13,20.5z M10.5,17C8.57,17,7,18.57,7,20.5   S8.57,24,10.5,24s3.5-1.57,3.5-3.5S12.43,17,10.5,17L10.5,17z M29,29H16.724c-0.62-1.744-2.268-3-4.224-3s-3.605,1.256-4.224,3H3   v-8.05c1.141-0.232,2-1.24,2-2.45c0-1.209-0.859-2.218-2-2.45V3h20.05c0.232,1.141,1.24,2,2.45,2s2.218-0.859,2.45-2H29V29z    M27.95,2c-0.476,0-0.885,0.335-0.98,0.801C26.829,3.496,26.21,4,25.5,4s-1.329-0.504-1.47-1.199C23.936,2.335,23.526,2,23.05,2H3   C2.448,2,2,2.448,2,3v13.05c0,0.476,0.335,0.885,0.801,0.98C3.496,17.171,4,17.79,4,18.5s-0.504,1.329-1.199,1.47   C2.335,20.064,2,20.474,2,20.95V29c0,0.552,0.448,1,1,1h5.276c0.423,0,0.8-0.266,0.942-0.665C9.714,27.938,11.033,27,12.5,27   s2.786,0.938,3.282,2.335C15.924,29.734,16.301,30,16.724,30H29c0.552,0,1-0.448,1-1V3c0-0.552-0.448-1-1-1H27.95z" style="fill: #265AA5;"/>
</g>
<metadata><work rdf:about=""><format>image/svg+xml</format><type rdf:resource="http://purl.org/dc/dcmitype/StillImage"/><license rdf:resource="http://creativecommons.org/licenses/by/4.0/"/><attributionname>Carol Liao</attributionname><attributionurl>http://www.toicon.com/icons/hatch_curdle</attributionurl></work></metadata></svg>
