<?xml version="1.0" encoding="UTF-8"?>
<!-- Generator: Adobe Illustrator 19.2.0, SVG Export Plug-In . SVG Version: 6.00 Build 0)  -->
<!DOCTYPE svg PUBLIC "-//W3C//DTD SVG 1.1//EN" "http://www.w3.org/Graphics/SVG/1.1/DTD/svg11.dtd">
<svg xmlns="http://www.w3.org/2000/svg" xmlns:xlink="http://www.w3.org/1999/xlink" xmlns:dc="http://purl.org/dc/elements/1.1/" xmlns:cc="http://creativecommons.org/ns#" xmlns:rdf="http://www.w3.org/1999/02/22-rdf-syntax-ns#" version="1.1" id="DESIGNS" x="0px" y="0px" width="32px" height="32px" viewBox="0 0 32 32" style="enable-background:new 0 0 32 32;" xml:space="preserve">
<title property="dc:title">to multiply</title><desc property="dc:description">An icon for "multiply" from the Hatch series on to [icon]. Downloaded from http://www.toicon.com/icons/hatch_multiply by 107.220.146.171 on 2017-03-24. Licensed CC-BY, see http://toicon.com/license/ for details.</desc>
<g>
	<path class="hatch_twee" d="M26.768,22.525l0.707,0.707l-4.243,4.243l-0.707-0.707L26.768,22.525z M6.747,26.546l0.707,0.707   L27.253,7.454l-0.707-0.707L6.747,26.546z M16.525,20.768l0.707,0.707l4.243-4.243l-0.707-0.707L16.525,20.768z M20.525,24.768   l0.707,0.707l4.243-4.243l-0.707-0.707L20.525,24.768z M18.525,22.768l0.707,0.707l4.243-4.243l-0.707-0.707L18.525,22.768z    M9.475,5.232L8.768,4.525L4.525,8.768l0.707,0.707L9.475,5.232z M15.475,11.232l-0.707-0.707l-4.243,4.243l0.707,0.707   L15.475,11.232z M11.475,7.232l-0.707-0.707l-4.243,4.243l0.707,0.707L11.475,7.232z M25.253,5.454l-0.707-0.707L4.747,24.546   l0.707,0.707L25.253,5.454z M13.475,9.232l-0.707-0.707l-4.243,4.243l0.707,0.707L13.475,9.232z" style="fill: #FFC5BB;"/>
	<path class="hatch_een" d="M28.042,8.243l-7.778,7.778l7.778,7.778l-4.243,4.243l-7.778-7.778l-7.778,7.778L4,23.799l7.778-7.778   L4,8.243L8.243,4l7.778,7.778L23.799,4L28.042,8.243z M23.092,3.293l-7.071,7.071L8.95,3.293C8.754,3.098,8.499,3,8.243,3   S7.731,3.098,7.536,3.293L3.293,7.536c-0.391,0.391-0.391,1.024,0,1.414l7.071,7.071l-7.071,7.071   c-0.391,0.391-0.391,1.024,0,1.414l4.243,4.243c0.195,0.195,0.451,0.293,0.707,0.293s0.512-0.098,0.707-0.293l7.071-7.071   l7.071,7.071c0.195,0.195,0.451,0.293,0.707,0.293s0.512-0.098,0.707-0.293l4.243-4.243c0.391-0.391,0.391-1.024,0-1.414   l-7.071-7.071l7.071-7.071c0.391-0.391,0.391-1.024,0-1.414l-4.243-4.243C24.311,3.098,24.074,3,23.799,3   S23.287,3.098,23.092,3.293z" style="fill: #265AA5;"/>
</g>
<metadata><work rdf:about=""><format>image/svg+xml</format><type rdf:resource="http://purl.org/dc/dcmitype/StillImage"/><license rdf:resource="http://creativecommons.org/licenses/by/4.0/"/><attributionname>Carol Liao</attributionname><attributionurl>http://www.toicon.com/icons/hatch_multiply</attributionurl></work></metadata></svg>
