<?xml version="1.0" encoding="UTF-8"?>
<!-- Generator: Adobe Illustrator 19.2.0, SVG Export Plug-In . SVG Version: 6.00 Build 0)  -->
<!DOCTYPE svg PUBLIC "-//W3C//DTD SVG 1.1//EN" "http://www.w3.org/Graphics/SVG/1.1/DTD/svg11.dtd">
<svg xmlns="http://www.w3.org/2000/svg" xmlns:xlink="http://www.w3.org/1999/xlink" xmlns:dc="http://purl.org/dc/elements/1.1/" xmlns:cc="http://creativecommons.org/ns#" xmlns:rdf="http://www.w3.org/1999/02/22-rdf-syntax-ns#" version="1.1" id="DESIGNS" x="0px" y="0px" width="32px" height="32px" viewBox="0 0 32 32" style="enable-background:new 0 0 32 32;" xml:space="preserve">
<title property="dc:title">to navigate</title><desc property="dc:description">An icon for "navigate" from the Hatch series on to [icon]. Downloaded from http://www.toicon.com/icons/hatch_navigate by 107.220.146.171 on 2017-03-31. Licensed CC-BY, see http://toicon.com/license/ for details.</desc>
<g>
	<path class="hatch_twee" d="M14.5,11.102l7.56-7.56c0.311,0.156,0.616,0.323,0.914,0.5l-7.542,7.542L14.5,11.102z M12.796,10.22   l7.446-7.446c-0.358-0.122-0.722-0.228-1.092-0.322l-7.285,7.285L12.796,10.22z M10.159,8.857l6.785-6.785   c-0.443-0.043-0.887-0.07-1.341-0.073L9.227,8.375L10.159,8.857z M10.844,2.758l-9.09,9.09c-0.212,0.626-0.374,1.253-0.5,1.914   L12.763,2.253C12.103,2.379,11.468,2.547,10.844,2.758z M19.745,15.271l7.431-7.431c-0.2-0.27-0.409-0.532-0.627-0.787   l-7.286,7.286L19.745,15.271z M22.472,20.544l7.192-7.192c-0.083-0.381-0.175-0.759-0.286-1.128l-7.387,7.387L22.472,20.544z    M21.109,17.907l7.552-7.552c-0.148-0.32-0.302-0.636-0.472-0.942l-7.563,7.563L21.109,17.907z M18.069,12.948l7.205-7.205   c-0.248-0.225-0.502-0.442-0.765-0.649l-7.372,7.372L18.069,12.948z M7.375,10.227l-6.376,6.376c0.003,0.454,0.03,0.897,0.074,1.34   l6.784-6.784L7.375,10.227z M11.466,18.136l-7.348,7.348c0.208,0.263,0.425,0.516,0.65,0.764l7.18-7.18L11.466,18.136z    M18.612,22.99l-7.377,7.377c0.368,0.113,0.739,0.211,1.119,0.295l7.191-7.19L18.612,22.99z M21.135,29.882l7.75-7.75   c0.282-0.671,0.516-1.393,0.696-2.112L19.025,30.578C19.744,30.397,20.455,30.182,21.135,29.882z M21.248,24.354l-6.615,6.615   C14.918,30.985,15.211,31,15.5,31c0.183,0,0.342-0.001,0.524-0.008l6.156-6.156L21.248,24.354z M29.971,15.631l-6.617,6.617   l0.482,0.932l6.15-6.15C29.993,16.848,30,16.684,30,16.5C30,16.211,29.987,15.916,29.971,15.631z M13.339,20.263L6.08,27.522   c0.255,0.218,0.513,0.431,0.783,0.632l7.408-7.408L13.339,20.263z M15.975,21.627l-7.539,7.539c0.306,0.171,0.615,0.331,0.934,0.48   l7.537-7.537L15.975,21.627z M10.102,15.5l-7.546,7.546c0.157,0.31,0.327,0.612,0.505,0.909l7.523-7.523L10.102,15.5z    M8.738,12.864l-7.28,7.28c0.095,0.369,0.205,0.729,0.328,1.086l7.435-7.435L8.738,12.864z" style="fill: #FFC5BB;"/>
	<path class="hatch_een" d="M17.975,14.025l5.303,10.253l-10.253-5.303L7.722,8.722L17.975,14.025z M7.015,8.015   c-0.308,0.308-0.381,0.78-0.181,1.167l5.303,10.253c0.095,0.184,0.245,0.334,0.429,0.429l10.253,5.303   c0.145,0.075,0.303,0.112,0.459,0.112c0.259,0,0.515-0.101,0.707-0.293c0.308-0.308,0.381-0.78,0.181-1.167l-5.303-10.253   c-0.095-0.184-0.245-0.334-0.429-0.429L8.181,7.834C8.036,7.758,7.929,7.722,7.722,7.722S7.207,7.823,7.015,8.015z M30,16.5   C30,24.619,23.508,31,15.5,31S1,24.508,1,16.5S7.468,2,15.5,2S30,8.381,30,16.5z M0,16.5C0,25.047,6.953,32,15.5,32   S31,25.047,31,16.5S24.001,1,15.5,1S0,7.953,0,16.5z M17,16.5c0,0.828-0.672,1.5-1.5,1.5S14,17.328,14,16.5s0.656-1.5,1.5-1.5   S17,15.672,17,16.5z M13,16.5c0,1.379,1.122,2.5,2.5,2.5s2.5-1.121,2.5-2.5S16.891,14,15.5,14S13,15.121,13,16.5z" style="fill: #265AA5;"/>
</g>
<metadata><work rdf:about=""><format>image/svg+xml</format><type rdf:resource="http://purl.org/dc/dcmitype/StillImage"/><license rdf:resource="http://creativecommons.org/licenses/by/4.0/"/><attributionname>Carol Liao</attributionname><attributionurl>http://www.toicon.com/icons/hatch_navigate</attributionurl></work></metadata></svg>
